<mxfile host="Electron" modified="2024-10-09T14:22:51.294Z" agent="Mozilla/5.0 (Windows NT 10.0; Win64; x64) AppleWebKit/537.36 (KHTML, like Gecko) draw.io/24.1.0 Chrome/120.0.6099.109 Electron/28.1.0 Safari/537.36" etag="2waVDYm3NQRVbM4ubzrx" version="24.1.0" type="device">
  <diagram name="PÃ¡gina-1" id="4AsMBui_O2mrqk55qG8a">
    <mxGraphModel dx="2422" dy="768" grid="1" gridSize="10" guides="1" tooltips="1" connect="1" arrows="1" fold="1" page="1" pageScale="1" pageWidth="827" pageHeight="1169" math="0" shadow="0">
      <root>
        <mxCell id="0" />
        <mxCell id="1" parent="0" />
        <mxCell id="wt-aQSrJydBZdkq5_UEP-1" value="&amp;lt;&amp;lt;root&amp;gt;&amp;gt;&lt;br&gt;&amp;lt;&amp;lt;entity&amp;gt;&amp;gt;&lt;div&gt;OperationRequest&lt;/div&gt;" style="whiteSpace=wrap;html=1;" parent="1" vertex="1">
          <mxGeometry x="220" y="190" width="120" height="60" as="geometry" />
        </mxCell>
        <mxCell id="00JM_ZhNrvVwOaPGAAfQ-4" style="edgeStyle=orthogonalEdgeStyle;rounded=0;orthogonalLoop=1;jettySize=auto;html=1;exitX=0.5;exitY=1;exitDx=0;exitDy=0;entryX=0.5;entryY=0;entryDx=0;entryDy=0;" parent="1" source="wt-aQSrJydBZdkq5_UEP-2" target="00JM_ZhNrvVwOaPGAAfQ-2" edge="1">
          <mxGeometry relative="1" as="geometry" />
        </mxCell>
        <mxCell id="00JM_ZhNrvVwOaPGAAfQ-6" value="1" style="edgeLabel;html=1;align=center;verticalAlign=middle;resizable=0;points=[];" parent="00JM_ZhNrvVwOaPGAAfQ-4" vertex="1" connectable="0">
          <mxGeometry x="0.36" y="-1" relative="1" as="geometry">
            <mxPoint x="11" as="offset" />
          </mxGeometry>
        </mxCell>
        <mxCell id="eLeBJTTPtMBUgs7N4k0F-1" style="edgeStyle=orthogonalEdgeStyle;rounded=0;orthogonalLoop=1;jettySize=auto;html=1;exitX=0;exitY=0.5;exitDx=0;exitDy=0;entryX=1;entryY=0.5;entryDx=0;entryDy=0;" edge="1" parent="1" source="wt-aQSrJydBZdkq5_UEP-2" target="00JM_ZhNrvVwOaPGAAfQ-3">
          <mxGeometry relative="1" as="geometry" />
        </mxCell>
        <mxCell id="eLeBJTTPtMBUgs7N4k0F-2" value="1" style="edgeLabel;html=1;align=center;verticalAlign=middle;resizable=0;points=[];" vertex="1" connectable="0" parent="eLeBJTTPtMBUgs7N4k0F-1">
          <mxGeometry x="0.3842" relative="1" as="geometry">
            <mxPoint y="-10" as="offset" />
          </mxGeometry>
        </mxCell>
        <mxCell id="wt-aQSrJydBZdkq5_UEP-2" value="&amp;lt;&amp;lt;root&amp;gt;&amp;gt;&lt;div&gt;&amp;lt;&amp;lt;entity&amp;gt;&amp;gt;&lt;br&gt;&lt;div&gt;OperationType&lt;/div&gt;&lt;/div&gt;" style="whiteSpace=wrap;html=1;" parent="1" vertex="1">
          <mxGeometry x="-50" y="190" width="120" height="60" as="geometry" />
        </mxCell>
        <mxCell id="wt-aQSrJydBZdkq5_UEP-3" value="" style="endArrow=classic;html=1;rounded=0;exitX=0;exitY=0.5;exitDx=0;exitDy=0;entryX=1;entryY=0.5;entryDx=0;entryDy=0;" parent="1" source="wt-aQSrJydBZdkq5_UEP-1" target="wt-aQSrJydBZdkq5_UEP-2" edge="1">
          <mxGeometry width="50" height="50" relative="1" as="geometry">
            <mxPoint x="350" y="350" as="sourcePoint" />
            <mxPoint x="400" y="300" as="targetPoint" />
          </mxGeometry>
        </mxCell>
        <mxCell id="wt-aQSrJydBZdkq5_UEP-4" value="1" style="edgeLabel;html=1;align=center;verticalAlign=middle;resizable=0;points=[];" parent="wt-aQSrJydBZdkq5_UEP-3" vertex="1" connectable="0">
          <mxGeometry x="0.5521" y="2" relative="1" as="geometry">
            <mxPoint x="-5" y="-10" as="offset" />
          </mxGeometry>
        </mxCell>
        <mxCell id="wt-aQSrJydBZdkq5_UEP-6" value="&amp;lt;&amp;lt;root&amp;gt;&amp;gt;&lt;div&gt;&amp;lt;&amp;lt;entity&amp;gt;&amp;gt;&lt;/div&gt;&lt;div&gt;Patient&lt;/div&gt;" style="whiteSpace=wrap;html=1;" parent="1" vertex="1">
          <mxGeometry x="270" y="490" width="120" height="60" as="geometry" />
        </mxCell>
        <mxCell id="wt-aQSrJydBZdkq5_UEP-9" value="" style="endArrow=classic;html=1;rounded=0;exitX=0.5;exitY=1;exitDx=0;exitDy=0;entryX=0.5;entryY=0;entryDx=0;entryDy=0;" parent="1" source="wt-aQSrJydBZdkq5_UEP-1" target="wt-aQSrJydBZdkq5_UEP-6" edge="1">
          <mxGeometry width="50" height="50" relative="1" as="geometry">
            <mxPoint x="330" y="450" as="sourcePoint" />
            <mxPoint x="315" y="470" as="targetPoint" />
          </mxGeometry>
        </mxCell>
        <mxCell id="wt-aQSrJydBZdkq5_UEP-10" value="1" style="edgeLabel;html=1;align=center;verticalAlign=middle;resizable=0;points=[];" parent="wt-aQSrJydBZdkq5_UEP-9" vertex="1" connectable="0">
          <mxGeometry x="0.8897" y="-2" relative="1" as="geometry">
            <mxPoint x="12" as="offset" />
          </mxGeometry>
        </mxCell>
        <mxCell id="wt-aQSrJydBZdkq5_UEP-11" value="OperationRequest" style="shape=umlFrame;whiteSpace=wrap;html=1;pointerEvents=0;width=120;height=20;" parent="1" vertex="1">
          <mxGeometry x="130" y="160" width="470" height="260" as="geometry" />
        </mxCell>
        <mxCell id="wt-aQSrJydBZdkq5_UEP-12" value="&amp;lt;&amp;lt;value&amp;gt;&amp;gt;&lt;br&gt;Priority" style="whiteSpace=wrap;html=1;" parent="1" vertex="1">
          <mxGeometry x="450" y="210" width="120" height="60" as="geometry" />
        </mxCell>
        <mxCell id="wt-aQSrJydBZdkq5_UEP-13" value="&amp;lt;&amp;lt;value&amp;gt;&amp;gt;&lt;br&gt;DeadlineDate" style="whiteSpace=wrap;html=1;" parent="1" vertex="1">
          <mxGeometry x="450" y="280" width="120" height="60" as="geometry" />
        </mxCell>
        <mxCell id="wt-aQSrJydBZdkq5_UEP-14" value="" style="endArrow=classic;html=1;rounded=0;exitX=1;exitY=0.5;exitDx=0;exitDy=0;entryX=0;entryY=0.5;entryDx=0;entryDy=0;" parent="1" source="wt-aQSrJydBZdkq5_UEP-1" target="wt-aQSrJydBZdkq5_UEP-12" edge="1">
          <mxGeometry width="50" height="50" relative="1" as="geometry">
            <mxPoint x="440" y="490" as="sourcePoint" />
            <mxPoint x="490" y="440" as="targetPoint" />
          </mxGeometry>
        </mxCell>
        <mxCell id="wt-aQSrJydBZdkq5_UEP-15" value="1" style="edgeLabel;html=1;align=center;verticalAlign=middle;resizable=0;points=[];" parent="wt-aQSrJydBZdkq5_UEP-14" vertex="1" connectable="0">
          <mxGeometry x="0.6468" y="2" relative="1" as="geometry">
            <mxPoint x="-4" y="-10" as="offset" />
          </mxGeometry>
        </mxCell>
        <mxCell id="wt-aQSrJydBZdkq5_UEP-16" value="" style="endArrow=classic;html=1;rounded=0;exitX=1;exitY=0.75;exitDx=0;exitDy=0;entryX=0;entryY=0.5;entryDx=0;entryDy=0;" parent="1" source="wt-aQSrJydBZdkq5_UEP-1" target="wt-aQSrJydBZdkq5_UEP-13" edge="1">
          <mxGeometry width="50" height="50" relative="1" as="geometry">
            <mxPoint x="410" y="380" as="sourcePoint" />
            <mxPoint x="460" y="330" as="targetPoint" />
          </mxGeometry>
        </mxCell>
        <mxCell id="wt-aQSrJydBZdkq5_UEP-17" value="1" style="edgeLabel;html=1;align=center;verticalAlign=middle;resizable=0;points=[];" parent="wt-aQSrJydBZdkq5_UEP-16" vertex="1" connectable="0">
          <mxGeometry x="0.7346" y="1" relative="1" as="geometry">
            <mxPoint x="1" y="-17" as="offset" />
          </mxGeometry>
        </mxCell>
        <mxCell id="wt-aQSrJydBZdkq5_UEP-18" value="Patient" style="shape=umlFrame;whiteSpace=wrap;html=1;pointerEvents=0;" parent="1" vertex="1">
          <mxGeometry x="70" y="460" width="530" height="360" as="geometry" />
        </mxCell>
        <mxCell id="00JM_ZhNrvVwOaPGAAfQ-1" value="Operation Type" style="shape=umlFrame;whiteSpace=wrap;html=1;pointerEvents=0;width=70;height=30;" parent="1" vertex="1">
          <mxGeometry x="-380" y="160" width="490" height="260" as="geometry" />
        </mxCell>
        <mxCell id="00JM_ZhNrvVwOaPGAAfQ-2" value="&amp;lt;&amp;lt;value&amp;gt;&amp;gt;&lt;div&gt;OperationName&lt;/div&gt;" style="whiteSpace=wrap;html=1;" parent="1" vertex="1">
          <mxGeometry x="-60" y="280" width="120" height="60" as="geometry" />
        </mxCell>
        <mxCell id="00JM_ZhNrvVwOaPGAAfQ-3" value="&amp;lt;&amp;lt;value&amp;gt;&amp;gt;&lt;div&gt;EstimatedDuration&lt;/div&gt;" style="whiteSpace=wrap;html=1;" parent="1" vertex="1">
          <mxGeometry x="-230" y="190" width="120" height="60" as="geometry" />
        </mxCell>
        <mxCell id="00JM_ZhNrvVwOaPGAAfQ-13" value="&amp;lt;&amp;lt;value&amp;gt;&amp;gt;&lt;div&gt;DateOfBirth&lt;/div&gt;" style="whiteSpace=wrap;html=1;" parent="1" vertex="1">
          <mxGeometry x="110" y="520" width="90" height="60" as="geometry" />
        </mxCell>
        <mxCell id="00JM_ZhNrvVwOaPGAAfQ-14" value="" style="endArrow=classic;html=1;rounded=0;exitX=0;exitY=0.5;exitDx=0;exitDy=0;entryX=1.027;entryY=0.617;entryDx=0;entryDy=0;entryPerimeter=0;" parent="1" source="wt-aQSrJydBZdkq5_UEP-6" target="00JM_ZhNrvVwOaPGAAfQ-13" edge="1">
          <mxGeometry width="50" height="50" relative="1" as="geometry">
            <mxPoint x="260" y="580" as="sourcePoint" />
            <mxPoint x="310" y="530" as="targetPoint" />
          </mxGeometry>
        </mxCell>
        <mxCell id="00JM_ZhNrvVwOaPGAAfQ-15" value="1" style="edgeLabel;html=1;align=center;verticalAlign=middle;resizable=0;points=[];" parent="00JM_ZhNrvVwOaPGAAfQ-14" vertex="1" connectable="0">
          <mxGeometry x="0.5703" y="-2" relative="1" as="geometry">
            <mxPoint x="-4" y="-12" as="offset" />
          </mxGeometry>
        </mxCell>
        <mxCell id="00JM_ZhNrvVwOaPGAAfQ-16" value="&amp;lt;&amp;lt;id&amp;gt;&amp;gt;&lt;div&gt;MedicalRecordNumber&lt;/div&gt;" style="whiteSpace=wrap;html=1;" parent="1" vertex="1">
          <mxGeometry x="440" y="490" width="130" height="60" as="geometry" />
        </mxCell>
        <mxCell id="00JM_ZhNrvVwOaPGAAfQ-17" value="" style="endArrow=classic;html=1;rounded=0;exitX=1;exitY=0.5;exitDx=0;exitDy=0;entryX=0;entryY=0.5;entryDx=0;entryDy=0;" parent="1" source="wt-aQSrJydBZdkq5_UEP-6" target="00JM_ZhNrvVwOaPGAAfQ-16" edge="1">
          <mxGeometry width="50" height="50" relative="1" as="geometry">
            <mxPoint x="370" y="540" as="sourcePoint" />
            <mxPoint x="420" y="490" as="targetPoint" />
          </mxGeometry>
        </mxCell>
        <mxCell id="00JM_ZhNrvVwOaPGAAfQ-18" value="1" style="edgeLabel;html=1;align=center;verticalAlign=middle;resizable=0;points=[];" parent="00JM_ZhNrvVwOaPGAAfQ-17" vertex="1" connectable="0">
          <mxGeometry x="0.4473" y="-2" relative="1" as="geometry">
            <mxPoint x="-6" y="-12" as="offset" />
          </mxGeometry>
        </mxCell>
        <mxCell id="00JM_ZhNrvVwOaPGAAfQ-19" value="&amp;lt;&amp;lt;value&amp;gt;&amp;gt;&lt;div&gt;Email&lt;/div&gt;" style="whiteSpace=wrap;html=1;" parent="1" vertex="1">
          <mxGeometry x="450" y="570" width="120" height="60" as="geometry" />
        </mxCell>
        <mxCell id="00JM_ZhNrvVwOaPGAAfQ-20" value="" style="endArrow=classic;html=1;rounded=0;exitX=1;exitY=0.75;exitDx=0;exitDy=0;entryX=0;entryY=0.5;entryDx=0;entryDy=0;" parent="1" source="wt-aQSrJydBZdkq5_UEP-6" target="00JM_ZhNrvVwOaPGAAfQ-19" edge="1">
          <mxGeometry width="50" height="50" relative="1" as="geometry">
            <mxPoint x="410" y="690" as="sourcePoint" />
            <mxPoint x="460" y="640" as="targetPoint" />
          </mxGeometry>
        </mxCell>
        <mxCell id="00JM_ZhNrvVwOaPGAAfQ-21" value="1" style="edgeLabel;html=1;align=center;verticalAlign=middle;resizable=0;points=[];" parent="00JM_ZhNrvVwOaPGAAfQ-20" vertex="1" connectable="0">
          <mxGeometry x="0.5377" y="3" relative="1" as="geometry">
            <mxPoint x="2" y="-13" as="offset" />
          </mxGeometry>
        </mxCell>
        <mxCell id="00JM_ZhNrvVwOaPGAAfQ-22" value="&amp;lt;&amp;lt;value&amp;gt;&amp;gt;&lt;div&gt;PhoneNumber&lt;/div&gt;" style="whiteSpace=wrap;html=1;" parent="1" vertex="1">
          <mxGeometry x="450" y="650" width="120" height="60" as="geometry" />
        </mxCell>
        <mxCell id="00JM_ZhNrvVwOaPGAAfQ-23" value="" style="endArrow=classic;html=1;rounded=0;exitX=0.75;exitY=1;exitDx=0;exitDy=0;entryX=0;entryY=0.5;entryDx=0;entryDy=0;" parent="1" source="wt-aQSrJydBZdkq5_UEP-6" target="00JM_ZhNrvVwOaPGAAfQ-22" edge="1">
          <mxGeometry width="50" height="50" relative="1" as="geometry">
            <mxPoint x="350" y="690" as="sourcePoint" />
            <mxPoint x="400" y="640" as="targetPoint" />
          </mxGeometry>
        </mxCell>
        <mxCell id="00JM_ZhNrvVwOaPGAAfQ-24" value="1" style="edgeLabel;html=1;align=center;verticalAlign=middle;resizable=0;points=[];" parent="00JM_ZhNrvVwOaPGAAfQ-23" vertex="1" connectable="0">
          <mxGeometry x="0.7554" relative="1" as="geometry">
            <mxPoint x="1" y="-14" as="offset" />
          </mxGeometry>
        </mxCell>
        <mxCell id="00JM_ZhNrvVwOaPGAAfQ-25" value="&amp;lt;&amp;lt;value&amp;gt;&amp;gt;&lt;div&gt;Allergy&lt;/div&gt;" style="whiteSpace=wrap;html=1;" parent="1" vertex="1">
          <mxGeometry x="340" y="740" width="120" height="60" as="geometry" />
        </mxCell>
        <mxCell id="00JM_ZhNrvVwOaPGAAfQ-26" value="" style="endArrow=classic;html=1;rounded=0;exitX=0.5;exitY=1;exitDx=0;exitDy=0;entryX=0.5;entryY=0;entryDx=0;entryDy=0;" parent="1" source="wt-aQSrJydBZdkq5_UEP-6" target="00JM_ZhNrvVwOaPGAAfQ-25" edge="1">
          <mxGeometry width="50" height="50" relative="1" as="geometry">
            <mxPoint x="300" y="690" as="sourcePoint" />
            <mxPoint x="350" y="640" as="targetPoint" />
          </mxGeometry>
        </mxCell>
        <mxCell id="00JM_ZhNrvVwOaPGAAfQ-27" value="*" style="edgeLabel;html=1;align=center;verticalAlign=middle;resizable=0;points=[];" parent="00JM_ZhNrvVwOaPGAAfQ-26" vertex="1" connectable="0">
          <mxGeometry x="0.8643" y="1" relative="1" as="geometry">
            <mxPoint x="9" as="offset" />
          </mxGeometry>
        </mxCell>
        <mxCell id="00JM_ZhNrvVwOaPGAAfQ-28" value="&amp;lt;&amp;lt;root&amp;gt;&amp;gt;&lt;div&gt;&amp;lt;&amp;lt;entity&amp;gt;&amp;gt;&lt;/div&gt;&lt;div&gt;Staff&lt;/div&gt;" style="whiteSpace=wrap;html=1;" parent="1" vertex="1">
          <mxGeometry x="850" y="490" width="120" height="60" as="geometry" />
        </mxCell>
        <mxCell id="00JM_ZhNrvVwOaPGAAfQ-30" value="Staff" style="shape=umlFrame;whiteSpace=wrap;html=1;pointerEvents=0;" parent="1" vertex="1">
          <mxGeometry x="630" y="450" width="540" height="370" as="geometry" />
        </mxCell>
        <mxCell id="00JM_ZhNrvVwOaPGAAfQ-31" value="&amp;lt;&amp;lt;value&amp;gt;&amp;gt;&lt;div&gt;FullName&lt;/div&gt;" style="whiteSpace=wrap;html=1;" parent="1" vertex="1">
          <mxGeometry x="775" y="585" width="100" height="60" as="geometry" />
        </mxCell>
        <mxCell id="00JM_ZhNrvVwOaPGAAfQ-34" value="&amp;lt;&amp;lt;value&amp;gt;&amp;gt;&lt;div&gt;FirstName&lt;/div&gt;" style="whiteSpace=wrap;html=1;" parent="1" vertex="1">
          <mxGeometry x="650" y="590" width="90" height="60" as="geometry" />
        </mxCell>
        <mxCell id="00JM_ZhNrvVwOaPGAAfQ-35" value="&amp;lt;&amp;lt;value&amp;gt;&amp;gt;&lt;div&gt;LastName&lt;/div&gt;" style="whiteSpace=wrap;html=1;" parent="1" vertex="1">
          <mxGeometry x="780" y="720" width="90" height="60" as="geometry" />
        </mxCell>
        <mxCell id="00JM_ZhNrvVwOaPGAAfQ-41" value="" style="endArrow=classic;html=1;rounded=0;exitX=0.75;exitY=0;exitDx=0;exitDy=0;entryX=0.5;entryY=1;entryDx=0;entryDy=0;" parent="1" source="00JM_ZhNrvVwOaPGAAfQ-28" target="v8suukQ3Q1kWvmqkOaev-53" edge="1">
          <mxGeometry width="50" height="50" relative="1" as="geometry">
            <mxPoint x="960" y="500" as="sourcePoint" />
            <mxPoint x="870" y="340" as="targetPoint" />
          </mxGeometry>
        </mxCell>
        <mxCell id="00JM_ZhNrvVwOaPGAAfQ-42" value="1" style="edgeLabel;html=1;align=center;verticalAlign=middle;resizable=0;points=[];" parent="00JM_ZhNrvVwOaPGAAfQ-41" vertex="1" connectable="0">
          <mxGeometry x="0.5703" y="-2" relative="1" as="geometry">
            <mxPoint y="-17" as="offset" />
          </mxGeometry>
        </mxCell>
        <mxCell id="00JM_ZhNrvVwOaPGAAfQ-43" value="&amp;lt;&amp;lt;id&amp;gt;&amp;gt;&lt;div&gt;LicenseNumber&lt;/div&gt;" style="whiteSpace=wrap;html=1;" parent="1" vertex="1">
          <mxGeometry x="1020" y="490" width="120" height="60" as="geometry" />
        </mxCell>
        <mxCell id="00JM_ZhNrvVwOaPGAAfQ-44" value="" style="endArrow=classic;html=1;rounded=0;exitX=1;exitY=0.5;exitDx=0;exitDy=0;entryX=0;entryY=0.5;entryDx=0;entryDy=0;" parent="1" source="00JM_ZhNrvVwOaPGAAfQ-28" target="00JM_ZhNrvVwOaPGAAfQ-43" edge="1">
          <mxGeometry width="50" height="50" relative="1" as="geometry">
            <mxPoint x="940" y="540" as="sourcePoint" />
            <mxPoint x="990" y="490" as="targetPoint" />
          </mxGeometry>
        </mxCell>
        <mxCell id="00JM_ZhNrvVwOaPGAAfQ-45" value="1" style="edgeLabel;html=1;align=center;verticalAlign=middle;resizable=0;points=[];" parent="00JM_ZhNrvVwOaPGAAfQ-44" vertex="1" connectable="0">
          <mxGeometry x="0.4473" y="-2" relative="1" as="geometry">
            <mxPoint x="-6" y="-12" as="offset" />
          </mxGeometry>
        </mxCell>
        <mxCell id="00JM_ZhNrvVwOaPGAAfQ-46" value="&amp;lt;&amp;lt;value&amp;gt;&amp;gt;&lt;div&gt;Email&lt;/div&gt;" style="whiteSpace=wrap;html=1;" parent="1" vertex="1">
          <mxGeometry x="1020" y="570" width="120" height="60" as="geometry" />
        </mxCell>
        <mxCell id="00JM_ZhNrvVwOaPGAAfQ-47" value="" style="endArrow=classic;html=1;rounded=0;exitX=1;exitY=0.75;exitDx=0;exitDy=0;entryX=0;entryY=0.5;entryDx=0;entryDy=0;" parent="1" source="00JM_ZhNrvVwOaPGAAfQ-28" target="00JM_ZhNrvVwOaPGAAfQ-46" edge="1">
          <mxGeometry width="50" height="50" relative="1" as="geometry">
            <mxPoint x="980" y="690" as="sourcePoint" />
            <mxPoint x="1030" y="640" as="targetPoint" />
          </mxGeometry>
        </mxCell>
        <mxCell id="00JM_ZhNrvVwOaPGAAfQ-48" value="1" style="edgeLabel;html=1;align=center;verticalAlign=middle;resizable=0;points=[];" parent="00JM_ZhNrvVwOaPGAAfQ-47" vertex="1" connectable="0">
          <mxGeometry x="0.5377" y="3" relative="1" as="geometry">
            <mxPoint x="2" y="-13" as="offset" />
          </mxGeometry>
        </mxCell>
        <mxCell id="00JM_ZhNrvVwOaPGAAfQ-49" value="&amp;lt;&amp;lt;value&amp;gt;&amp;gt;&lt;div&gt;PhoneNumber&lt;/div&gt;" style="whiteSpace=wrap;html=1;" parent="1" vertex="1">
          <mxGeometry x="1020" y="650" width="120" height="60" as="geometry" />
        </mxCell>
        <mxCell id="00JM_ZhNrvVwOaPGAAfQ-50" value="" style="endArrow=classic;html=1;rounded=0;exitX=0.75;exitY=1;exitDx=0;exitDy=0;entryX=0;entryY=0.5;entryDx=0;entryDy=0;" parent="1" source="00JM_ZhNrvVwOaPGAAfQ-28" target="00JM_ZhNrvVwOaPGAAfQ-49" edge="1">
          <mxGeometry width="50" height="50" relative="1" as="geometry">
            <mxPoint x="920" y="690" as="sourcePoint" />
            <mxPoint x="970" y="640" as="targetPoint" />
          </mxGeometry>
        </mxCell>
        <mxCell id="00JM_ZhNrvVwOaPGAAfQ-51" value="1" style="edgeLabel;html=1;align=center;verticalAlign=middle;resizable=0;points=[];" parent="00JM_ZhNrvVwOaPGAAfQ-50" vertex="1" connectable="0">
          <mxGeometry x="0.7554" relative="1" as="geometry">
            <mxPoint x="1" y="-14" as="offset" />
          </mxGeometry>
        </mxCell>
        <mxCell id="00JM_ZhNrvVwOaPGAAfQ-55" value="&amp;lt;&amp;lt;root&amp;gt;&amp;gt;&lt;div&gt;&amp;lt;&amp;lt;entity&amp;gt;&amp;gt;&lt;br&gt;&lt;div&gt;Specialization&lt;/div&gt;&lt;/div&gt;" style="whiteSpace=wrap;html=1;" parent="1" vertex="1">
          <mxGeometry x="650" y="330" width="110" height="60" as="geometry" />
        </mxCell>
        <mxCell id="00JM_ZhNrvVwOaPGAAfQ-56" value="&amp;lt;&amp;lt;value&amp;gt;&amp;gt;&lt;div&gt;AvailableSlot&lt;/div&gt;" style="whiteSpace=wrap;html=1;" parent="1" vertex="1">
          <mxGeometry x="890" y="720" width="120" height="60" as="geometry" />
        </mxCell>
        <mxCell id="00JM_ZhNrvVwOaPGAAfQ-60" value="&lt;b&gt;LicenseNumber, Email&amp;nbsp;&lt;/b&gt;&lt;div&gt;&lt;b&gt;e PhoneNumber&lt;/b&gt;&lt;div&gt;&lt;b&gt;tÃªm de ser valores Ãºnicos&lt;/b&gt;&lt;/div&gt;&lt;/div&gt;&lt;div&gt;&lt;b&gt;em Staff&lt;/b&gt;&lt;/div&gt;" style="rounded=1;whiteSpace=wrap;html=1;" parent="1" vertex="1">
          <mxGeometry x="1210" y="550" width="220" height="100" as="geometry" />
        </mxCell>
        <mxCell id="00JM_ZhNrvVwOaPGAAfQ-61" value="" style="endArrow=none;dashed=1;html=1;dashPattern=1 3;strokeWidth=2;rounded=0;entryX=1;entryY=0.5;entryDx=0;entryDy=0;exitX=0;exitY=0.5;exitDx=0;exitDy=0;" parent="1" source="00JM_ZhNrvVwOaPGAAfQ-60" target="00JM_ZhNrvVwOaPGAAfQ-43" edge="1">
          <mxGeometry width="50" height="50" relative="1" as="geometry">
            <mxPoint x="1230" y="560" as="sourcePoint" />
            <mxPoint x="1280" y="510" as="targetPoint" />
            <Array as="points">
              <mxPoint x="1180" y="600" />
              <mxPoint x="1180" y="520" />
            </Array>
          </mxGeometry>
        </mxCell>
        <mxCell id="00JM_ZhNrvVwOaPGAAfQ-62" value="" style="endArrow=none;dashed=1;html=1;dashPattern=1 3;strokeWidth=2;rounded=0;entryX=1;entryY=0.5;entryDx=0;entryDy=0;exitX=0;exitY=0.5;exitDx=0;exitDy=0;" parent="1" source="00JM_ZhNrvVwOaPGAAfQ-60" target="00JM_ZhNrvVwOaPGAAfQ-46" edge="1">
          <mxGeometry width="50" height="50" relative="1" as="geometry">
            <mxPoint x="1220" y="600" as="sourcePoint" />
            <mxPoint x="1150" y="530" as="targetPoint" />
          </mxGeometry>
        </mxCell>
        <mxCell id="00JM_ZhNrvVwOaPGAAfQ-63" value="" style="endArrow=none;dashed=1;html=1;dashPattern=1 3;strokeWidth=2;rounded=0;entryX=1;entryY=0.5;entryDx=0;entryDy=0;exitX=0;exitY=0.5;exitDx=0;exitDy=0;" parent="1" source="00JM_ZhNrvVwOaPGAAfQ-60" target="00JM_ZhNrvVwOaPGAAfQ-49" edge="1">
          <mxGeometry width="50" height="50" relative="1" as="geometry">
            <mxPoint x="1230" y="610" as="sourcePoint" />
            <mxPoint x="1160" y="540" as="targetPoint" />
            <Array as="points">
              <mxPoint x="1180" y="600" />
              <mxPoint x="1180" y="680" />
            </Array>
          </mxGeometry>
        </mxCell>
        <mxCell id="00JM_ZhNrvVwOaPGAAfQ-64" value="&lt;b&gt;MedicalRecordNumber,&amp;nbsp;&lt;/b&gt;&lt;div&gt;&lt;b&gt;Email&amp;nbsp;&lt;/b&gt;&lt;b style=&quot;background-color: initial;&quot;&gt;e PhoneNumber&lt;/b&gt;&lt;div&gt;&lt;div&gt;&lt;b&gt;tÃªm de ser valores Ãºnicos&lt;/b&gt;&lt;/div&gt;&lt;/div&gt;&lt;/div&gt;&lt;div&gt;&lt;b&gt;em Patient&lt;/b&gt;&lt;/div&gt;" style="rounded=1;whiteSpace=wrap;html=1;" parent="1" vertex="1">
          <mxGeometry x="420" y="840" width="220" height="100" as="geometry" />
        </mxCell>
        <mxCell id="00JM_ZhNrvVwOaPGAAfQ-65" value="" style="endArrow=none;dashed=1;html=1;rounded=0;exitX=0.75;exitY=0;exitDx=0;exitDy=0;entryX=1;entryY=0.5;entryDx=0;entryDy=0;" parent="1" source="00JM_ZhNrvVwOaPGAAfQ-64" target="00JM_ZhNrvVwOaPGAAfQ-22" edge="1">
          <mxGeometry width="50" height="50" relative="1" as="geometry">
            <mxPoint x="520" y="760" as="sourcePoint" />
            <mxPoint x="570" y="710" as="targetPoint" />
            <Array as="points">
              <mxPoint x="585" y="680" />
            </Array>
          </mxGeometry>
        </mxCell>
        <mxCell id="00JM_ZhNrvVwOaPGAAfQ-66" value="" style="endArrow=none;dashed=1;html=1;rounded=0;exitX=0.75;exitY=0;exitDx=0;exitDy=0;entryX=1;entryY=0.5;entryDx=0;entryDy=0;" parent="1" target="00JM_ZhNrvVwOaPGAAfQ-19" edge="1">
          <mxGeometry width="50" height="50" relative="1" as="geometry">
            <mxPoint x="585" y="840" as="sourcePoint" />
            <mxPoint x="570" y="680" as="targetPoint" />
            <Array as="points">
              <mxPoint x="585" y="600" />
            </Array>
          </mxGeometry>
        </mxCell>
        <mxCell id="00JM_ZhNrvVwOaPGAAfQ-67" value="" style="endArrow=none;dashed=1;html=1;rounded=0;exitX=0.75;exitY=0;exitDx=0;exitDy=0;entryX=1;entryY=0.5;entryDx=0;entryDy=0;" parent="1" target="00JM_ZhNrvVwOaPGAAfQ-16" edge="1">
          <mxGeometry width="50" height="50" relative="1" as="geometry">
            <mxPoint x="585" y="840" as="sourcePoint" />
            <mxPoint x="570" y="680" as="targetPoint" />
            <Array as="points">
              <mxPoint x="585" y="520" />
            </Array>
          </mxGeometry>
        </mxCell>
        <mxCell id="00JM_ZhNrvVwOaPGAAfQ-70" value="Appointment" style="shape=umlFrame;whiteSpace=wrap;html=1;pointerEvents=0;width=80;height=30;" parent="1" vertex="1">
          <mxGeometry x="-340" y="450" width="360" height="210" as="geometry" />
        </mxCell>
        <mxCell id="00JM_ZhNrvVwOaPGAAfQ-71" value="&amp;lt;&amp;lt;root&amp;gt;&amp;gt;&lt;div&gt;&amp;lt;&amp;lt;entity&amp;gt;&amp;gt;&lt;/div&gt;&lt;div&gt;Appointment&lt;/div&gt;" style="whiteSpace=wrap;html=1;" parent="1" vertex="1">
          <mxGeometry x="-120" y="480" width="120" height="60" as="geometry" />
        </mxCell>
        <mxCell id="00JM_ZhNrvVwOaPGAAfQ-72" value="" style="endArrow=classic;html=1;rounded=0;exitX=0.75;exitY=0;exitDx=0;exitDy=0;entryX=0.25;entryY=1;entryDx=0;entryDy=0;" parent="1" source="00JM_ZhNrvVwOaPGAAfQ-71" target="wt-aQSrJydBZdkq5_UEP-1" edge="1">
          <mxGeometry width="50" height="50" relative="1" as="geometry">
            <mxPoint x="120" y="520" as="sourcePoint" />
            <mxPoint x="170" y="470" as="targetPoint" />
          </mxGeometry>
        </mxCell>
        <mxCell id="00JM_ZhNrvVwOaPGAAfQ-73" value="1" style="edgeLabel;html=1;align=center;verticalAlign=middle;resizable=0;points=[];" parent="00JM_ZhNrvVwOaPGAAfQ-72" vertex="1" connectable="0">
          <mxGeometry x="0.8652" y="-2" relative="1" as="geometry">
            <mxPoint x="9" y="3" as="offset" />
          </mxGeometry>
        </mxCell>
        <mxCell id="00JM_ZhNrvVwOaPGAAfQ-74" value="&amp;lt;&amp;lt;value&amp;gt;&amp;gt;&lt;div&gt;DateTime&lt;/div&gt;" style="whiteSpace=wrap;html=1;" parent="1" vertex="1">
          <mxGeometry x="-310" y="570" width="120" height="60" as="geometry" />
        </mxCell>
        <mxCell id="00JM_ZhNrvVwOaPGAAfQ-77" value="&amp;lt;&amp;lt;enum&amp;gt;&amp;gt;&lt;div&gt;AppointmentStatus&lt;/div&gt;" style="whiteSpace=wrap;html=1;" parent="1" vertex="1">
          <mxGeometry x="-310" y="490" width="120" height="60" as="geometry" />
        </mxCell>
        <mxCell id="00JM_ZhNrvVwOaPGAAfQ-82" style="edgeStyle=orthogonalEdgeStyle;rounded=0;orthogonalLoop=1;jettySize=auto;html=1;exitX=0;exitY=0.5;exitDx=0;exitDy=0;entryX=0.988;entryY=0.333;entryDx=0;entryDy=0;entryPerimeter=0;" parent="1" source="00JM_ZhNrvVwOaPGAAfQ-71" target="00JM_ZhNrvVwOaPGAAfQ-77" edge="1">
          <mxGeometry relative="1" as="geometry" />
        </mxCell>
        <mxCell id="00JM_ZhNrvVwOaPGAAfQ-83" value="1" style="edgeLabel;html=1;align=center;verticalAlign=middle;resizable=0;points=[];" parent="00JM_ZhNrvVwOaPGAAfQ-82" vertex="1" connectable="0">
          <mxGeometry x="0.342" y="2" relative="1" as="geometry">
            <mxPoint y="-12" as="offset" />
          </mxGeometry>
        </mxCell>
        <mxCell id="00JM_ZhNrvVwOaPGAAfQ-84" value="" style="endArrow=classic;html=1;rounded=0;exitX=0;exitY=0.5;exitDx=0;exitDy=0;entryX=1;entryY=0.5;entryDx=0;entryDy=0;" parent="1" source="00JM_ZhNrvVwOaPGAAfQ-71" target="00JM_ZhNrvVwOaPGAAfQ-74" edge="1">
          <mxGeometry width="50" height="50" relative="1" as="geometry">
            <mxPoint x="-190" y="630" as="sourcePoint" />
            <mxPoint x="-140" y="580" as="targetPoint" />
            <Array as="points">
              <mxPoint x="-160" y="510" />
              <mxPoint x="-160" y="600" />
            </Array>
          </mxGeometry>
        </mxCell>
        <mxCell id="00JM_ZhNrvVwOaPGAAfQ-85" value="1" style="edgeLabel;html=1;align=center;verticalAlign=middle;resizable=0;points=[];" parent="00JM_ZhNrvVwOaPGAAfQ-84" vertex="1" connectable="0">
          <mxGeometry x="0.8202" relative="1" as="geometry">
            <mxPoint y="-10" as="offset" />
          </mxGeometry>
        </mxCell>
        <mxCell id="00JM_ZhNrvVwOaPGAAfQ-87" value="SurgeryRoom" style="shape=umlFrame;whiteSpace=wrap;html=1;pointerEvents=0;width=90;height=30;" parent="1" vertex="1">
          <mxGeometry x="-340" y="680" width="360" height="300" as="geometry" />
        </mxCell>
        <mxCell id="00JM_ZhNrvVwOaPGAAfQ-93" value="&amp;lt;&amp;lt;root&amp;gt;&amp;gt;&lt;div&gt;&amp;lt;&amp;lt;entity&amp;gt;&amp;gt;&lt;/div&gt;&lt;div&gt;SurgeryRoom&lt;/div&gt;" style="whiteSpace=wrap;html=1;" parent="1" vertex="1">
          <mxGeometry x="-120" y="710" width="120" height="60" as="geometry" />
        </mxCell>
        <mxCell id="00JM_ZhNrvVwOaPGAAfQ-94" value="&amp;lt;&amp;lt;id&amp;gt;&amp;gt;&lt;div&gt;RoomNumber&lt;/div&gt;" style="whiteSpace=wrap;html=1;" parent="1" vertex="1">
          <mxGeometry x="-120" y="810" width="120" height="60" as="geometry" />
        </mxCell>
        <mxCell id="00JM_ZhNrvVwOaPGAAfQ-96" value="Specialization" style="shape=umlFrame;whiteSpace=wrap;html=1;pointerEvents=0;width=90;height=30;" parent="1" vertex="1">
          <mxGeometry x="640" y="270" width="250" height="150" as="geometry" />
        </mxCell>
        <mxCell id="00JM_ZhNrvVwOaPGAAfQ-98" value="" style="endArrow=classic;html=1;rounded=0;exitX=0.75;exitY=1;exitDx=0;exitDy=0;entryX=0.75;entryY=0;entryDx=0;entryDy=0;" parent="1" source="00JM_ZhNrvVwOaPGAAfQ-93" target="00JM_ZhNrvVwOaPGAAfQ-94" edge="1">
          <mxGeometry width="50" height="50" relative="1" as="geometry">
            <mxPoint x="-80" y="800" as="sourcePoint" />
            <mxPoint x="-30" y="750" as="targetPoint" />
          </mxGeometry>
        </mxCell>
        <mxCell id="00JM_ZhNrvVwOaPGAAfQ-99" value="1" style="edgeLabel;html=1;align=center;verticalAlign=middle;resizable=0;points=[];" parent="00JM_ZhNrvVwOaPGAAfQ-98" vertex="1" connectable="0">
          <mxGeometry x="0.3992" y="1" relative="1" as="geometry">
            <mxPoint x="9" y="-3" as="offset" />
          </mxGeometry>
        </mxCell>
        <mxCell id="00JM_ZhNrvVwOaPGAAfQ-100" value="&amp;lt;&amp;lt;enum&amp;gt;&amp;gt;&lt;div&gt;RoomType&lt;/div&gt;" style="whiteSpace=wrap;html=1;" parent="1" vertex="1">
          <mxGeometry x="-300" y="720" width="100" height="40" as="geometry" />
        </mxCell>
        <mxCell id="00JM_ZhNrvVwOaPGAAfQ-101" value="" style="endArrow=classic;html=1;rounded=0;exitX=0;exitY=0.5;exitDx=0;exitDy=0;entryX=1;entryY=0.5;entryDx=0;entryDy=0;" parent="1" source="00JM_ZhNrvVwOaPGAAfQ-93" target="00JM_ZhNrvVwOaPGAAfQ-100" edge="1">
          <mxGeometry width="50" height="50" relative="1" as="geometry">
            <mxPoint x="-220" y="770" as="sourcePoint" />
            <mxPoint x="-170" y="720" as="targetPoint" />
          </mxGeometry>
        </mxCell>
        <mxCell id="00JM_ZhNrvVwOaPGAAfQ-102" value="1" style="edgeLabel;html=1;align=center;verticalAlign=middle;resizable=0;points=[];" parent="00JM_ZhNrvVwOaPGAAfQ-101" vertex="1" connectable="0">
          <mxGeometry x="0.2967" y="-1" relative="1" as="geometry">
            <mxPoint x="-4" y="-15" as="offset" />
          </mxGeometry>
        </mxCell>
        <mxCell id="00JM_ZhNrvVwOaPGAAfQ-103" value="&amp;lt;&amp;lt;enum&amp;gt;&amp;gt;&lt;div&gt;RoomStatus&lt;/div&gt;" style="whiteSpace=wrap;html=1;" parent="1" vertex="1">
          <mxGeometry x="-300" y="770" width="100" height="40" as="geometry" />
        </mxCell>
        <mxCell id="00JM_ZhNrvVwOaPGAAfQ-104" value="" style="endArrow=classic;html=1;rounded=0;exitX=0;exitY=0.5;exitDx=0;exitDy=0;entryX=1;entryY=0.5;entryDx=0;entryDy=0;" parent="1" target="00JM_ZhNrvVwOaPGAAfQ-103" edge="1">
          <mxGeometry width="50" height="50" relative="1" as="geometry">
            <mxPoint x="-140" y="740" as="sourcePoint" />
            <mxPoint x="-170" y="740" as="targetPoint" />
            <Array as="points">
              <mxPoint x="-160" y="740" />
              <mxPoint x="-160" y="790" />
            </Array>
          </mxGeometry>
        </mxCell>
        <mxCell id="00JM_ZhNrvVwOaPGAAfQ-105" value="1" style="edgeLabel;html=1;align=center;verticalAlign=middle;resizable=0;points=[];" parent="00JM_ZhNrvVwOaPGAAfQ-104" vertex="1" connectable="0">
          <mxGeometry x="0.2967" y="-1" relative="1" as="geometry">
            <mxPoint x="-28" y="-9" as="offset" />
          </mxGeometry>
        </mxCell>
        <mxCell id="00JM_ZhNrvVwOaPGAAfQ-106" value="&amp;lt;&amp;lt;value&amp;gt;&amp;gt;&lt;div&gt;Capacity&lt;/div&gt;" style="whiteSpace=wrap;html=1;" parent="1" vertex="1">
          <mxGeometry x="-300" y="820" width="100" height="40" as="geometry" />
        </mxCell>
        <mxCell id="00JM_ZhNrvVwOaPGAAfQ-107" value="" style="endArrow=classic;html=1;rounded=0;exitX=0;exitY=0.5;exitDx=0;exitDy=0;entryX=1;entryY=0.5;entryDx=0;entryDy=0;" parent="1" target="00JM_ZhNrvVwOaPGAAfQ-106" edge="1">
          <mxGeometry width="50" height="50" relative="1" as="geometry">
            <mxPoint x="-120" y="740" as="sourcePoint" />
            <mxPoint x="-180" y="790" as="targetPoint" />
            <Array as="points">
              <mxPoint x="-160" y="740" />
              <mxPoint x="-160" y="840" />
            </Array>
          </mxGeometry>
        </mxCell>
        <mxCell id="00JM_ZhNrvVwOaPGAAfQ-108" value="1" style="edgeLabel;html=1;align=center;verticalAlign=middle;resizable=0;points=[];" parent="00JM_ZhNrvVwOaPGAAfQ-107" vertex="1" connectable="0">
          <mxGeometry x="0.2967" y="-1" relative="1" as="geometry">
            <mxPoint x="-29" y="13" as="offset" />
          </mxGeometry>
        </mxCell>
        <mxCell id="00JM_ZhNrvVwOaPGAAfQ-109" value="&amp;lt;&amp;lt;value&amp;gt;&amp;gt;&lt;div&gt;AssignedEquipment&lt;/div&gt;" style="whiteSpace=wrap;html=1;" parent="1" vertex="1">
          <mxGeometry x="-320" y="870" width="120" height="40" as="geometry" />
        </mxCell>
        <mxCell id="00JM_ZhNrvVwOaPGAAfQ-110" value="" style="endArrow=classic;html=1;rounded=0;exitX=0;exitY=0.5;exitDx=0;exitDy=0;entryX=1;entryY=0.5;entryDx=0;entryDy=0;" parent="1" target="00JM_ZhNrvVwOaPGAAfQ-109" edge="1">
          <mxGeometry width="50" height="50" relative="1" as="geometry">
            <mxPoint x="-120" y="740" as="sourcePoint" />
            <mxPoint x="-190" y="890" as="targetPoint" />
            <Array as="points">
              <mxPoint x="-160" y="740" />
              <mxPoint x="-160" y="890" />
            </Array>
          </mxGeometry>
        </mxCell>
        <mxCell id="00JM_ZhNrvVwOaPGAAfQ-111" value="1..*" style="edgeLabel;html=1;align=center;verticalAlign=middle;resizable=0;points=[];" parent="00JM_ZhNrvVwOaPGAAfQ-110" vertex="1" connectable="0">
          <mxGeometry x="0.2967" y="-1" relative="1" as="geometry">
            <mxPoint x="-19" y="31" as="offset" />
          </mxGeometry>
        </mxCell>
        <mxCell id="00JM_ZhNrvVwOaPGAAfQ-112" value="&amp;lt;&amp;lt;value&amp;gt;&amp;gt;&lt;div&gt;MaintenanceSlot&lt;/div&gt;" style="whiteSpace=wrap;html=1;" parent="1" vertex="1">
          <mxGeometry x="-320" y="920" width="120" height="40" as="geometry" />
        </mxCell>
        <mxCell id="00JM_ZhNrvVwOaPGAAfQ-113" value="" style="endArrow=classic;html=1;rounded=0;exitX=0;exitY=0.5;exitDx=0;exitDy=0;entryX=1;entryY=0.5;entryDx=0;entryDy=0;" parent="1" target="00JM_ZhNrvVwOaPGAAfQ-112" edge="1">
          <mxGeometry width="50" height="50" relative="1" as="geometry">
            <mxPoint x="-120" y="740" as="sourcePoint" />
            <mxPoint x="-200" y="890" as="targetPoint" />
            <Array as="points">
              <mxPoint x="-160" y="740" />
              <mxPoint x="-160" y="940" />
            </Array>
          </mxGeometry>
        </mxCell>
        <mxCell id="00JM_ZhNrvVwOaPGAAfQ-114" value="1..*" style="edgeLabel;html=1;align=center;verticalAlign=middle;resizable=0;points=[];" parent="00JM_ZhNrvVwOaPGAAfQ-113" vertex="1" connectable="0">
          <mxGeometry x="0.2967" y="-1" relative="1" as="geometry">
            <mxPoint x="-19" y="48" as="offset" />
          </mxGeometry>
        </mxCell>
        <mxCell id="8S-xRrLJWilpk1Cq8pcS-2" value="" style="endArrow=classic;html=1;rounded=0;exitX=0.5;exitY=1;exitDx=0;exitDy=0;entryX=0.5;entryY=0;entryDx=0;entryDy=0;" parent="1" source="00JM_ZhNrvVwOaPGAAfQ-71" target="00JM_ZhNrvVwOaPGAAfQ-93" edge="1">
          <mxGeometry width="50" height="50" relative="1" as="geometry">
            <mxPoint x="250" y="670" as="sourcePoint" />
            <mxPoint x="300" y="620" as="targetPoint" />
          </mxGeometry>
        </mxCell>
        <mxCell id="8S-xRrLJWilpk1Cq8pcS-3" value="&amp;lt;&amp;lt;value&amp;gt;&amp;gt;&lt;div&gt;Name&lt;/div&gt;" style="whiteSpace=wrap;html=1;" parent="1" vertex="1">
          <mxGeometry x="790" y="330" width="80" height="60" as="geometry" />
        </mxCell>
        <mxCell id="8S-xRrLJWilpk1Cq8pcS-5" value="" style="endArrow=classic;html=1;rounded=0;exitX=1;exitY=0.25;exitDx=0;exitDy=0;entryX=0;entryY=0.25;entryDx=0;entryDy=0;" parent="1" source="00JM_ZhNrvVwOaPGAAfQ-55" target="8S-xRrLJWilpk1Cq8pcS-3" edge="1">
          <mxGeometry width="50" height="50" relative="1" as="geometry">
            <mxPoint x="790" y="390" as="sourcePoint" />
            <mxPoint x="840" y="340" as="targetPoint" />
          </mxGeometry>
        </mxCell>
        <mxCell id="8S-xRrLJWilpk1Cq8pcS-6" value="1" style="edgeLabel;html=1;align=center;verticalAlign=middle;resizable=0;points=[];" parent="8S-xRrLJWilpk1Cq8pcS-5" vertex="1" connectable="0">
          <mxGeometry x="0.089" relative="1" as="geometry">
            <mxPoint x="-1" y="-14" as="offset" />
          </mxGeometry>
        </mxCell>
        <mxCell id="v8suukQ3Q1kWvmqkOaev-2" value="&amp;lt;&amp;lt;value&amp;gt;&amp;gt;&lt;div&gt;&lt;span style=&quot;background-color: initial;&quot;&gt;MiddleNames&lt;/span&gt;&lt;/div&gt;" style="whiteSpace=wrap;html=1;" parent="1" vertex="1">
          <mxGeometry x="670" y="720" width="90" height="60" as="geometry" />
        </mxCell>
        <mxCell id="v8suukQ3Q1kWvmqkOaev-4" value="" style="endArrow=classic;html=1;rounded=0;exitX=0.25;exitY=1;exitDx=0;exitDy=0;entryX=0.5;entryY=0;entryDx=0;entryDy=0;" parent="1" source="00JM_ZhNrvVwOaPGAAfQ-28" target="00JM_ZhNrvVwOaPGAAfQ-31" edge="1">
          <mxGeometry width="50" height="50" relative="1" as="geometry">
            <mxPoint x="820" y="630" as="sourcePoint" />
            <mxPoint x="870" y="580" as="targetPoint" />
          </mxGeometry>
        </mxCell>
        <mxCell id="v8suukQ3Q1kWvmqkOaev-5" value="1" style="edgeLabel;html=1;align=center;verticalAlign=middle;resizable=0;points=[];" parent="v8suukQ3Q1kWvmqkOaev-4" vertex="1" connectable="0">
          <mxGeometry x="0.5986" relative="1" as="geometry">
            <mxPoint x="-4" y="-8" as="offset" />
          </mxGeometry>
        </mxCell>
        <mxCell id="v8suukQ3Q1kWvmqkOaev-6" value="" style="endArrow=classic;html=1;rounded=0;exitX=0;exitY=0.5;exitDx=0;exitDy=0;entryX=1;entryY=0.5;entryDx=0;entryDy=0;" parent="1" source="00JM_ZhNrvVwOaPGAAfQ-31" target="00JM_ZhNrvVwOaPGAAfQ-34" edge="1">
          <mxGeometry width="50" height="50" relative="1" as="geometry">
            <mxPoint x="820" y="630" as="sourcePoint" />
            <mxPoint x="870" y="580" as="targetPoint" />
          </mxGeometry>
        </mxCell>
        <mxCell id="v8suukQ3Q1kWvmqkOaev-7" value="1" style="edgeLabel;html=1;align=center;verticalAlign=middle;resizable=0;points=[];" parent="v8suukQ3Q1kWvmqkOaev-6" vertex="1" connectable="0">
          <mxGeometry x="0.3197" y="-1" relative="1" as="geometry">
            <mxPoint x="1" y="-17" as="offset" />
          </mxGeometry>
        </mxCell>
        <mxCell id="v8suukQ3Q1kWvmqkOaev-8" value="" style="endArrow=classic;html=1;rounded=0;exitX=0;exitY=1;exitDx=0;exitDy=0;entryX=0.5;entryY=0;entryDx=0;entryDy=0;" parent="1" source="00JM_ZhNrvVwOaPGAAfQ-31" target="v8suukQ3Q1kWvmqkOaev-2" edge="1">
          <mxGeometry width="50" height="50" relative="1" as="geometry">
            <mxPoint x="820" y="630" as="sourcePoint" />
            <mxPoint x="870" y="580" as="targetPoint" />
          </mxGeometry>
        </mxCell>
        <mxCell id="v8suukQ3Q1kWvmqkOaev-9" value="1" style="edgeLabel;html=1;align=center;verticalAlign=middle;resizable=0;points=[];" parent="v8suukQ3Q1kWvmqkOaev-8" vertex="1" connectable="0">
          <mxGeometry x="0.6005" y="1" relative="1" as="geometry">
            <mxPoint x="12" y="4" as="offset" />
          </mxGeometry>
        </mxCell>
        <mxCell id="v8suukQ3Q1kWvmqkOaev-10" value="" style="endArrow=classic;html=1;rounded=0;exitX=0.25;exitY=1;exitDx=0;exitDy=0;entryX=0.25;entryY=0;entryDx=0;entryDy=0;" parent="1" source="00JM_ZhNrvVwOaPGAAfQ-31" target="00JM_ZhNrvVwOaPGAAfQ-35" edge="1">
          <mxGeometry width="50" height="50" relative="1" as="geometry">
            <mxPoint x="820" y="690" as="sourcePoint" />
            <mxPoint x="870" y="640" as="targetPoint" />
          </mxGeometry>
        </mxCell>
        <mxCell id="v8suukQ3Q1kWvmqkOaev-11" value="1" style="edgeLabel;html=1;align=center;verticalAlign=middle;resizable=0;points=[];" parent="v8suukQ3Q1kWvmqkOaev-10" vertex="1" connectable="0">
          <mxGeometry x="0.6241" y="2" relative="1" as="geometry">
            <mxPoint x="6" y="-6" as="offset" />
          </mxGeometry>
        </mxCell>
        <mxCell id="v8suukQ3Q1kWvmqkOaev-12" value="" style="endArrow=classic;html=1;rounded=0;exitX=0.5;exitY=1;exitDx=0;exitDy=0;entryX=0.5;entryY=0;entryDx=0;entryDy=0;" parent="1" source="00JM_ZhNrvVwOaPGAAfQ-28" target="00JM_ZhNrvVwOaPGAAfQ-56" edge="1">
          <mxGeometry width="50" height="50" relative="1" as="geometry">
            <mxPoint x="810" y="650" as="sourcePoint" />
            <mxPoint x="860" y="600" as="targetPoint" />
          </mxGeometry>
        </mxCell>
        <mxCell id="v8suukQ3Q1kWvmqkOaev-13" value="*" style="edgeLabel;html=1;align=center;verticalAlign=middle;resizable=0;points=[];" parent="v8suukQ3Q1kWvmqkOaev-12" vertex="1" connectable="0">
          <mxGeometry x="0.7659" relative="1" as="geometry">
            <mxPoint x="10" y="2" as="offset" />
          </mxGeometry>
        </mxCell>
        <mxCell id="v8suukQ3Q1kWvmqkOaev-14" value="&amp;lt;&amp;lt;value&amp;gt;&amp;gt;&lt;div&gt;FullName&lt;/div&gt;" style="whiteSpace=wrap;html=1;" parent="1" vertex="1">
          <mxGeometry x="205" y="615" width="100" height="60" as="geometry" />
        </mxCell>
        <mxCell id="v8suukQ3Q1kWvmqkOaev-15" value="&amp;lt;&amp;lt;value&amp;gt;&amp;gt;&lt;div&gt;FirstName&lt;/div&gt;" style="whiteSpace=wrap;html=1;" parent="1" vertex="1">
          <mxGeometry x="90" y="630" width="90" height="60" as="geometry" />
        </mxCell>
        <mxCell id="v8suukQ3Q1kWvmqkOaev-16" value="&amp;lt;&amp;lt;value&amp;gt;&amp;gt;&lt;div&gt;LastName&lt;/div&gt;" style="whiteSpace=wrap;html=1;" parent="1" vertex="1">
          <mxGeometry x="210" y="730" width="90" height="60" as="geometry" />
        </mxCell>
        <mxCell id="v8suukQ3Q1kWvmqkOaev-17" value="&amp;lt;&amp;lt;value&amp;gt;&amp;gt;&lt;div&gt;&lt;span style=&quot;background-color: initial;&quot;&gt;MiddleNames&lt;/span&gt;&lt;/div&gt;" style="whiteSpace=wrap;html=1;" parent="1" vertex="1">
          <mxGeometry x="100" y="730" width="90" height="60" as="geometry" />
        </mxCell>
        <mxCell id="v8suukQ3Q1kWvmqkOaev-18" value="" style="endArrow=classic;html=1;rounded=0;exitX=0.25;exitY=1;exitDx=0;exitDy=0;entryX=0.5;entryY=0;entryDx=0;entryDy=0;" parent="1" source="wt-aQSrJydBZdkq5_UEP-6" target="v8suukQ3Q1kWvmqkOaev-14" edge="1">
          <mxGeometry width="50" height="50" relative="1" as="geometry">
            <mxPoint x="300" y="580" as="sourcePoint" />
            <mxPoint x="300" y="610" as="targetPoint" />
          </mxGeometry>
        </mxCell>
        <mxCell id="v8suukQ3Q1kWvmqkOaev-19" value="1" style="edgeLabel;html=1;align=center;verticalAlign=middle;resizable=0;points=[];" parent="v8suukQ3Q1kWvmqkOaev-18" vertex="1" connectable="0">
          <mxGeometry x="0.5986" relative="1" as="geometry">
            <mxPoint x="-4" y="-8" as="offset" />
          </mxGeometry>
        </mxCell>
        <mxCell id="v8suukQ3Q1kWvmqkOaev-20" value="" style="endArrow=classic;html=1;rounded=0;exitX=0;exitY=0.5;exitDx=0;exitDy=0;entryX=1;entryY=0.5;entryDx=0;entryDy=0;" parent="1" source="v8suukQ3Q1kWvmqkOaev-14" target="v8suukQ3Q1kWvmqkOaev-15" edge="1">
          <mxGeometry width="50" height="50" relative="1" as="geometry">
            <mxPoint x="250" y="660" as="sourcePoint" />
            <mxPoint x="300" y="610" as="targetPoint" />
          </mxGeometry>
        </mxCell>
        <mxCell id="v8suukQ3Q1kWvmqkOaev-21" value="1" style="edgeLabel;html=1;align=center;verticalAlign=middle;resizable=0;points=[];" parent="v8suukQ3Q1kWvmqkOaev-20" vertex="1" connectable="0">
          <mxGeometry x="0.3197" y="-1" relative="1" as="geometry">
            <mxPoint x="1" y="-17" as="offset" />
          </mxGeometry>
        </mxCell>
        <mxCell id="v8suukQ3Q1kWvmqkOaev-22" value="" style="endArrow=classic;html=1;rounded=0;exitX=0;exitY=1;exitDx=0;exitDy=0;entryX=0.5;entryY=0;entryDx=0;entryDy=0;" parent="1" source="v8suukQ3Q1kWvmqkOaev-14" target="v8suukQ3Q1kWvmqkOaev-17" edge="1">
          <mxGeometry width="50" height="50" relative="1" as="geometry">
            <mxPoint x="250" y="660" as="sourcePoint" />
            <mxPoint x="300" y="610" as="targetPoint" />
          </mxGeometry>
        </mxCell>
        <mxCell id="v8suukQ3Q1kWvmqkOaev-23" value="1" style="edgeLabel;html=1;align=center;verticalAlign=middle;resizable=0;points=[];" parent="v8suukQ3Q1kWvmqkOaev-22" vertex="1" connectable="0">
          <mxGeometry x="0.6005" y="1" relative="1" as="geometry">
            <mxPoint x="-12" y="-10" as="offset" />
          </mxGeometry>
        </mxCell>
        <mxCell id="v8suukQ3Q1kWvmqkOaev-24" value="" style="endArrow=classic;html=1;rounded=0;exitX=0.25;exitY=1;exitDx=0;exitDy=0;entryX=0.25;entryY=0;entryDx=0;entryDy=0;" parent="1" source="v8suukQ3Q1kWvmqkOaev-14" target="v8suukQ3Q1kWvmqkOaev-16" edge="1">
          <mxGeometry width="50" height="50" relative="1" as="geometry">
            <mxPoint x="250" y="720" as="sourcePoint" />
            <mxPoint x="300" y="670" as="targetPoint" />
          </mxGeometry>
        </mxCell>
        <mxCell id="v8suukQ3Q1kWvmqkOaev-25" value="1" style="edgeLabel;html=1;align=center;verticalAlign=middle;resizable=0;points=[];" parent="v8suukQ3Q1kWvmqkOaev-24" vertex="1" connectable="0">
          <mxGeometry x="0.6241" y="2" relative="1" as="geometry">
            <mxPoint x="6" y="-6" as="offset" />
          </mxGeometry>
        </mxCell>
        <mxCell id="v8suukQ3Q1kWvmqkOaev-26" value="&amp;lt;&amp;lt;enum&amp;gt;&amp;gt;&lt;div&gt;RequestStatus&lt;/div&gt;" style="whiteSpace=wrap;html=1;" parent="1" vertex="1">
          <mxGeometry x="450" y="350" width="120" height="60" as="geometry" />
        </mxCell>
        <mxCell id="v8suukQ3Q1kWvmqkOaev-27" value="" style="endArrow=classic;html=1;rounded=0;exitX=0.75;exitY=1;exitDx=0;exitDy=0;entryX=0;entryY=0.5;entryDx=0;entryDy=0;" parent="1" source="wt-aQSrJydBZdkq5_UEP-1" target="v8suukQ3Q1kWvmqkOaev-26" edge="1">
          <mxGeometry width="50" height="50" relative="1" as="geometry">
            <mxPoint x="150" y="440" as="sourcePoint" />
            <mxPoint x="200" y="390" as="targetPoint" />
          </mxGeometry>
        </mxCell>
        <mxCell id="v8suukQ3Q1kWvmqkOaev-28" value="1" style="edgeLabel;html=1;align=center;verticalAlign=middle;resizable=0;points=[];" parent="v8suukQ3Q1kWvmqkOaev-27" vertex="1" connectable="0">
          <mxGeometry x="0.8364" relative="1" as="geometry">
            <mxPoint x="1" y="-9" as="offset" />
          </mxGeometry>
        </mxCell>
        <mxCell id="v8suukQ3Q1kWvmqkOaev-39" value="" style="endArrow=classic;html=1;rounded=0;exitX=0.75;exitY=0;exitDx=0;exitDy=0;entryX=0.42;entryY=-0.007;entryDx=0;entryDy=0;entryPerimeter=0;" parent="1" source="wt-aQSrJydBZdkq5_UEP-1" target="00JM_ZhNrvVwOaPGAAfQ-28" edge="1">
          <mxGeometry width="50" height="50" relative="1" as="geometry">
            <mxPoint x="540" y="340" as="sourcePoint" />
            <mxPoint x="900" y="480" as="targetPoint" />
            <Array as="points">
              <mxPoint x="310" y="100" />
              <mxPoint x="900" y="100" />
              <mxPoint x="900" y="430" />
            </Array>
          </mxGeometry>
        </mxCell>
        <mxCell id="v8suukQ3Q1kWvmqkOaev-40" value="1" style="edgeLabel;html=1;align=center;verticalAlign=middle;resizable=0;points=[];" parent="v8suukQ3Q1kWvmqkOaev-39" vertex="1" connectable="0">
          <mxGeometry x="0.9746" y="1" relative="1" as="geometry">
            <mxPoint x="7" as="offset" />
          </mxGeometry>
        </mxCell>
        <mxCell id="v8suukQ3Q1kWvmqkOaev-41" value="" style="endArrow=none;dashed=1;html=1;dashPattern=1 3;strokeWidth=2;rounded=0;" parent="1" edge="1">
          <mxGeometry width="50" height="50" relative="1" as="geometry">
            <mxPoint x="800" y="100" as="sourcePoint" />
            <mxPoint x="850" y="70" as="targetPoint" />
          </mxGeometry>
        </mxCell>
        <mxCell id="v8suukQ3Q1kWvmqkOaev-42" value="&lt;b&gt;Staff.StaffRole.StaffRoleName = Doctor&lt;/b&gt;" style="rounded=1;whiteSpace=wrap;html=1;" parent="1" vertex="1">
          <mxGeometry x="850" y="40" width="250" height="40" as="geometry" />
        </mxCell>
        <mxCell id="v8suukQ3Q1kWvmqkOaev-52" value="StaffRole" style="shape=umlFrame;whiteSpace=wrap;html=1;pointerEvents=0;width=60;height=30;" parent="1" vertex="1">
          <mxGeometry x="950" y="240" width="310" height="180" as="geometry" />
        </mxCell>
        <mxCell id="v8suukQ3Q1kWvmqkOaev-53" value="&amp;lt;&amp;lt;root&amp;gt;&amp;gt;&lt;div&gt;&amp;lt;&amp;lt;entity&amp;gt;&amp;gt;&lt;br&gt;&lt;div&gt;StaffRole&lt;/div&gt;&lt;/div&gt;" style="whiteSpace=wrap;html=1;" parent="1" vertex="1">
          <mxGeometry x="1000" y="285" width="80" height="60" as="geometry" />
        </mxCell>
        <mxCell id="v8suukQ3Q1kWvmqkOaev-54" value="&amp;lt;&amp;lt;enum&amp;gt;&amp;gt;&lt;div&gt;StaffRoleName&lt;/div&gt;" style="whiteSpace=wrap;html=1;" parent="1" vertex="1">
          <mxGeometry x="1120" y="285" width="90" height="60" as="geometry" />
        </mxCell>
        <mxCell id="v8suukQ3Q1kWvmqkOaev-55" value="&amp;lt;&amp;lt;enum&amp;gt;&amp;gt;&lt;div&gt;DoctorType&lt;/div&gt;" style="whiteSpace=wrap;html=1;" parent="1" vertex="1">
          <mxGeometry x="1120" y="350" width="90" height="60" as="geometry" />
        </mxCell>
        <mxCell id="v8suukQ3Q1kWvmqkOaev-60" value="" style="endArrow=classic;html=1;rounded=0;exitX=0;exitY=0.5;exitDx=0;exitDy=0;entryX=0.5;entryY=0;entryDx=0;entryDy=0;" parent="1" source="v8suukQ3Q1kWvmqkOaev-53" target="00JM_ZhNrvVwOaPGAAfQ-55" edge="1">
          <mxGeometry width="50" height="50" relative="1" as="geometry">
            <mxPoint x="890" y="360" as="sourcePoint" />
            <mxPoint x="940" y="310" as="targetPoint" />
            <Array as="points">
              <mxPoint x="705" y="315" />
            </Array>
          </mxGeometry>
        </mxCell>
        <mxCell id="v8suukQ3Q1kWvmqkOaev-61" value="1" style="edgeLabel;html=1;align=center;verticalAlign=middle;resizable=0;points=[];" parent="v8suukQ3Q1kWvmqkOaev-60" vertex="1" connectable="0">
          <mxGeometry x="0.9221" relative="1" as="geometry">
            <mxPoint x="-15" y="-3" as="offset" />
          </mxGeometry>
        </mxCell>
        <mxCell id="v8suukQ3Q1kWvmqkOaev-62" value="" style="endArrow=classic;html=1;rounded=0;exitX=1;exitY=0.5;exitDx=0;exitDy=0;entryX=0;entryY=0.5;entryDx=0;entryDy=0;" parent="1" source="v8suukQ3Q1kWvmqkOaev-53" target="v8suukQ3Q1kWvmqkOaev-54" edge="1">
          <mxGeometry width="50" height="50" relative="1" as="geometry">
            <mxPoint x="940" y="370" as="sourcePoint" />
            <mxPoint x="990" y="320" as="targetPoint" />
          </mxGeometry>
        </mxCell>
        <mxCell id="v8suukQ3Q1kWvmqkOaev-63" value="1" style="edgeLabel;html=1;align=center;verticalAlign=middle;resizable=0;points=[];" parent="v8suukQ3Q1kWvmqkOaev-62" vertex="1" connectable="0">
          <mxGeometry x="0.3738" relative="1" as="geometry">
            <mxPoint x="-3" y="-15" as="offset" />
          </mxGeometry>
        </mxCell>
        <mxCell id="v8suukQ3Q1kWvmqkOaev-64" value="" style="endArrow=classic;html=1;rounded=0;exitX=1;exitY=0.5;exitDx=0;exitDy=0;entryX=0;entryY=0.5;entryDx=0;entryDy=0;" parent="1" source="v8suukQ3Q1kWvmqkOaev-53" target="v8suukQ3Q1kWvmqkOaev-55" edge="1">
          <mxGeometry width="50" height="50" relative="1" as="geometry">
            <mxPoint x="940" y="370" as="sourcePoint" />
            <mxPoint x="990" y="320" as="targetPoint" />
            <Array as="points">
              <mxPoint x="1100" y="315" />
              <mxPoint x="1100" y="380" />
            </Array>
          </mxGeometry>
        </mxCell>
        <mxCell id="v8suukQ3Q1kWvmqkOaev-65" value="0..1" style="edgeLabel;html=1;align=center;verticalAlign=middle;resizable=0;points=[];" parent="v8suukQ3Q1kWvmqkOaev-64" vertex="1" connectable="0">
          <mxGeometry x="0.7524" y="1" relative="1" as="geometry">
            <mxPoint x="-7" y="11" as="offset" />
          </mxGeometry>
        </mxCell>
        <mxCell id="v8suukQ3Q1kWvmqkOaev-66" value="" style="endArrow=classic;html=1;rounded=0;entryX=0.5;entryY=0;entryDx=0;entryDy=0;exitX=0.5;exitY=0;exitDx=0;exitDy=0;" parent="1" source="wt-aQSrJydBZdkq5_UEP-2" target="v8suukQ3Q1kWvmqkOaev-53" edge="1">
          <mxGeometry width="50" height="50" relative="1" as="geometry">
            <mxPoint x="410" y="310" as="sourcePoint" />
            <mxPoint x="460" y="260" as="targetPoint" />
            <Array as="points">
              <mxPoint x="10" y="130" />
              <mxPoint x="1040" y="130" />
            </Array>
          </mxGeometry>
        </mxCell>
        <mxCell id="v8suukQ3Q1kWvmqkOaev-67" value="1..*" style="edgeLabel;html=1;align=center;verticalAlign=middle;resizable=0;points=[];" parent="v8suukQ3Q1kWvmqkOaev-66" vertex="1" connectable="0">
          <mxGeometry x="0.9736" y="-1" relative="1" as="geometry">
            <mxPoint x="21" y="1" as="offset" />
          </mxGeometry>
        </mxCell>
        <mxCell id="eLeBJTTPtMBUgs7N4k0F-3" value="&amp;lt;&amp;lt;value&amp;gt;&amp;gt;&lt;div&gt;FirstName&lt;/div&gt;" style="whiteSpace=wrap;html=1;" vertex="1" parent="1">
          <mxGeometry x="-350" y="250" width="90" height="60" as="geometry" />
        </mxCell>
        <mxCell id="eLeBJTTPtMBUgs7N4k0F-4" value="&amp;lt;&amp;lt;value&amp;gt;&amp;gt;&lt;div&gt;LastName&lt;/div&gt;" style="whiteSpace=wrap;html=1;" vertex="1" parent="1">
          <mxGeometry x="-240" y="330" width="90" height="60" as="geometry" />
        </mxCell>
        <mxCell id="eLeBJTTPtMBUgs7N4k0F-5" value="&amp;lt;&amp;lt;value&amp;gt;&amp;gt;&lt;div&gt;&lt;span style=&quot;background-color: initial;&quot;&gt;MiddleNames&lt;/span&gt;&lt;/div&gt;" style="whiteSpace=wrap;html=1;" vertex="1" parent="1">
          <mxGeometry x="-350" y="330" width="90" height="60" as="geometry" />
        </mxCell>
        <mxCell id="eLeBJTTPtMBUgs7N4k0F-6" value="" style="endArrow=classic;html=1;rounded=0;exitX=0;exitY=1;exitDx=0;exitDy=0;entryX=1;entryY=0;entryDx=0;entryDy=0;" edge="1" parent="1" source="00JM_ZhNrvVwOaPGAAfQ-3" target="eLeBJTTPtMBUgs7N4k0F-5">
          <mxGeometry width="50" height="50" relative="1" as="geometry">
            <mxPoint y="390" as="sourcePoint" />
            <mxPoint x="50" y="340" as="targetPoint" />
          </mxGeometry>
        </mxCell>
        <mxCell id="eLeBJTTPtMBUgs7N4k0F-10" value="1" style="edgeLabel;html=1;align=center;verticalAlign=middle;resizable=0;points=[];" vertex="1" connectable="0" parent="eLeBJTTPtMBUgs7N4k0F-6">
          <mxGeometry x="0.2454" y="1" relative="1" as="geometry">
            <mxPoint x="8" y="15" as="offset" />
          </mxGeometry>
        </mxCell>
        <mxCell id="eLeBJTTPtMBUgs7N4k0F-7" value="" style="endArrow=classic;html=1;rounded=0;exitX=0;exitY=0.5;exitDx=0;exitDy=0;entryX=1;entryY=0.5;entryDx=0;entryDy=0;" edge="1" parent="1" source="00JM_ZhNrvVwOaPGAAfQ-3" target="eLeBJTTPtMBUgs7N4k0F-3">
          <mxGeometry width="50" height="50" relative="1" as="geometry">
            <mxPoint y="390" as="sourcePoint" />
            <mxPoint x="50" y="340" as="targetPoint" />
          </mxGeometry>
        </mxCell>
        <mxCell id="eLeBJTTPtMBUgs7N4k0F-9" value="1" style="edgeLabel;html=1;align=center;verticalAlign=middle;resizable=0;points=[];" vertex="1" connectable="0" parent="eLeBJTTPtMBUgs7N4k0F-7">
          <mxGeometry x="0.5071" y="1" relative="1" as="geometry">
            <mxPoint x="2" y="-25" as="offset" />
          </mxGeometry>
        </mxCell>
        <mxCell id="eLeBJTTPtMBUgs7N4k0F-8" value="" style="endArrow=classic;html=1;rounded=0;exitX=0.25;exitY=1;exitDx=0;exitDy=0;entryX=0.25;entryY=0;entryDx=0;entryDy=0;" edge="1" parent="1" source="00JM_ZhNrvVwOaPGAAfQ-3" target="eLeBJTTPtMBUgs7N4k0F-4">
          <mxGeometry width="50" height="50" relative="1" as="geometry">
            <mxPoint y="390" as="sourcePoint" />
            <mxPoint x="50" y="340" as="targetPoint" />
          </mxGeometry>
        </mxCell>
        <mxCell id="eLeBJTTPtMBUgs7N4k0F-11" value="1" style="edgeLabel;html=1;align=center;verticalAlign=middle;resizable=0;points=[];" vertex="1" connectable="0" parent="eLeBJTTPtMBUgs7N4k0F-8">
          <mxGeometry x="0.4781" relative="1" as="geometry">
            <mxPoint x="13" y="6" as="offset" />
          </mxGeometry>
        </mxCell>
      </root>
    </mxGraphModel>
  </diagram>
</mxfile>
